<?xml version="1.0" encoding="utf-8"?>
<!-- Generator: Adobe Illustrator 19.2.1, SVG Export Plug-In . SVG Version: 6.00 Build 0)  -->
<!DOCTYPE svg PUBLIC "-//W3C//DTD SVG 1.1//EN" "http://www.w3.org/Graphics/SVG/1.1/DTD/svg11.dtd">
<svg version="1.1" id="Layer_1" xmlns="http://www.w3.org/2000/svg" xmlns:xlink="http://www.w3.org/1999/xlink" x="0px" y="0px"
	 viewBox="0 0 40.9 40.9" enable-background="new 0 0 40.9 40.9" xml:space="preserve">
<path id="White_2_" fill="#626262" d="M38.6,0H2.3C1,0,0,1,0,2.3v36.4c0,1.2,1,2.3,2.3,2.3h19.6V25.1h-5.3v-6.2h5.3
	v-4.6c0-5.3,3.2-8.2,7.9-8.2c2.3,0,4.2,0.2,4.8,0.2v5.5l-3.3,0c-2.6,0-3.1,1.2-3.1,3v3.9h6.1l-0.8,6.2h-5.3v15.8h10.4
	c1.2,0,2.3-1,2.3-2.3V2.3C40.9,1,39.9,0,38.6,0z"/>
</svg>
