<?xml version="1.0" encoding="utf-8"?>
<!-- Generator: Adobe Illustrator 19.2.1, SVG Export Plug-In . SVG Version: 6.00 Build 0)  -->
<!DOCTYPE svg PUBLIC "-//W3C//DTD SVG 1.1//EN" "http://www.w3.org/Graphics/SVG/1.1/DTD/svg11.dtd">
<svg version="1.1" id="Layer_1" xmlns="http://www.w3.org/2000/svg" xmlns:xlink="http://www.w3.org/1999/xlink" x="0px" y="0px"
	 viewBox="0 0 40.9 40.9" enable-background="new 0 0 40.9 40.9" xml:space="preserve">
<g>
	<g>
		<path fill="#626262" d="M35.3-0.1H5.6c-3.1,0-5.7,2.5-5.7,5.7v29.6c0,3.1,2.5,5.7,5.7,5.7h29.6c3.1,0,5.7-2.5,5.7-5.7V5.6
			C40.9,2.5,38.4-0.1,35.3-0.1z M20.4,12.5c4.4,0,8,3.6,8,8c0,4.4-3.6,8-8,8c-4.4,0-8-3.6-8-8C12.5,16,16,12.5,20.4,12.5z
			 M36.4,35.3c0,0.6-0.5,1.1-1.1,1.1H5.6c-0.6,0-1.1-0.5-1.1-1.1V17h3.9c-0.3,1.1-0.5,2.2-0.5,3.4c0,6.9,5.6,12.5,12.5,12.5
			S33,27.4,33,20.4c0-1.2-0.2-2.3-0.5-3.4h3.9V35.3z M36.4,11.3c0,0.6-0.5,1.1-1.1,1.1h-5.7c-0.6,0-1.1-0.5-1.1-1.1V5.6
			c0-0.6,0.5-1.1,1.1-1.1h5.7c0.6,0,1.1,0.5,1.1,1.1V11.3z"/>
	</g>
</g>
</svg>
