<?xml version="1.0" encoding="utf-8"?>
<!-- Generator: Adobe Illustrator 22.1.0, SVG Export Plug-In . SVG Version: 6.00 Build 0)  -->
<svg version="1.1" xmlns="http://www.w3.org/2000/svg" xmlns:xlink="http://www.w3.org/1999/xlink" x="0px" y="0px"
	 viewBox="0 0 3000 1079.5" style="enable-background:new 0 0 3000 1079.5;" xml:space="preserve">
<style type="text/css">
	.st0{fill:#FF0000;}
	.st1{fill:none;}
	.st2{font-family:'Helvetica-BoldOblique';}
	.st3{font-size:133.764px;}
	.st4{letter-spacing:1.2;}
	.st5{fill:#1E1E1E;}
</style>
<g id="RPS">
</g>
<g id="Arcs">
</g>
<g id="Layer_4">
	<g>
		<g>
			<path class="st0" d="M801.3,457.9c5.3-1.4,2.3,11.7-3.5,21.8c-3.3,5.6-190.8,67.3-286.4,210.7c0,0-110,149.9,76.8,237.5
				c0.8,0.4,1.4,1.2,1.6,2.1c0.5,2.6-2.6,8.1-4.2,7.6c-34.8-10.2-155.8-31.3-194.3-121c0,0-27.9-65.3,47.9-157.6
				C439.2,659,558.4,524.1,801.3,457.9z"/>
			<path class="st0" d="M828.5,333.9c18-5.4-1.6,36.2-1.6,36.2c-58.9,22.3-136.1,45.7-254.8,120.7
				c-207.2,130.9-337.8,340.4-75.3,462.4c2,0.9-0.1,7.6-5.1,7c-241.7-28.6-466.8-243.7,33.1-510.8
				C529,447.3,672.2,380.8,828.5,333.9z"/>
			<path class="st0" d="M398.6,976.2C-151.5,692,574.5,338.1,943,241.1C1178.9,179,1521,93.5,1936.8,90
				c149.3-1.3,349.9,2.5,500,29.5c121.3,21.8,52.1-0.3,45.5-1.9c-189.1-46.9-303.4-72.1-670.7-69.3
				c-286.7,2.2-575.3,47.8-854.2,117.3C716.1,225.7,469,297.7,261.8,439.8C157.2,511.5,1.9,647.2,58.1,792.5
				c49.8,128.9,224.2,174.1,344.3,197.2C411.7,991.5,407.1,980.6,398.6,976.2z"/>
		</g>
		<rect x="653.5" y="828.9" class="st1" width="2632.2" height="411.9"/>
		<text transform="matrix(2.5 0 0 1.06 653.491 923.8401)" class="st2 st3 st4">AUTOMATION</text>
		<g>
			<g>
				<path class="st5" d="M2148,739.8c-5.8,0-17.4-0.2-23.6-0.7c-7.6-0.6,11.3-35.7,12.3-38.9l13.1-25.5c7.6-4,253.3-0.8,262-0.8
					c0,0,9.1-2.8,2.7-9.2c-7-7-127.6-88.9-127.6-88.9c-28.4-18.4-57.5-39.7-57-66.7c1.1-60.3,62.4-145.3,139.1-140.6l354.7-2.3
					c6.3,0,10.5-0.6,10.5,4.3c0,2.2-8.5,21.9-8.5,21.9l-15.5,35.3c-1.6,4-3.3,4-11.5,4h-242.1c0,0-13.3,2.7-4.9,7.4
					c7.1,3.9,13.6,9.2,20.2,13.9c13.5,9.5,26.9,19.1,40.3,28.6c27.3,19.5,54.6,39.1,81.8,58.8c16.3,11.8,32.8,20.7,39.8,40.7
					c3,8.6,5.4,20.2,3.2,29.4c-6.2,25.7-30,107.6-125.1,127.8L2148,739.8z"/>
			</g>
			<g>
				<path class="st5" d="M1768.1,609.2c-5.9,0-8.8-2.4-8.8-6.3c0-2,0-4.4,1.5-6.8l15.5-34.1c3.9-8.8,9-18.3,9-18.3l80.9-1.2
					c35.2-3.3,68.5-31.1,76.8-81c2.4-14.7-6.8-29.3-26.1-29.3l-110.9,1c0,0-120.6,265.5-134.7,303c-0.4,1-0.7,3.1-3.1,2.9
					l-172.9-1.4c-5.9,0-10.6,1.1-10.6-2.8c0-2.5,1.5-3.9,2.5-6.9l137-306.6c3.9-8.3,24-55.2,24-55.2h419.4c62.6,8.1,74.1,40.4,67,78
					c-18.5,97.2-98.3,160.5-183.3,163.7L1768.1,609.2z"/>
			</g>
			<g>
				<path class="st5" d="M1222.6,741.1c-13.1,0-27.7,0-27.7,0h-18.8c-2-3.1-73.4-182.9-76.7-191.8v-5.1c4-8.7,19.2-41.1,19.2-41.1
					l93.3-0.9c20.6-1.8,43.7-25.7,45.3-40.2c0.9-8.7,8.5-23.3-16.2-29.5l-121.2-0.4l-0.5,7.2l-130.7,297c0,0-1.6,6.1-7.4,4.9H808.2
					c-6,0-9.6-2-9.6-6.1c0-2.6,0.5-4.6,2-7.7l107.2-243.5c4-8.7,53.3-117.5,53.3-117.5h440.9c46.9,0,68,46.3,51.6,87.1
					c-23.3,58.1-74.7,102.4-141.6,115.1l2.1,5.4c0.5,1,63.9,159,63.9,160.5c0,5.6-8.9,6.8-16.9,6.8H1222.6z"/>
			</g>
		</g>
	</g>
</g>
</svg>
