<?xml version="1.0" encoding="utf-8"?>
<!-- Generator: Adobe Illustrator 22.1.0, SVG Export Plug-In . SVG Version: 6.00 Build 0)  -->
<svg version="1.1" id="Layer_1" xmlns="http://www.w3.org/2000/svg" xmlns:xlink="http://www.w3.org/1999/xlink" x="0px" y="0px"
	 viewBox="0 0 2687.9 941.9" style="enable-background:new 0 0 2687.9 941.9;" xml:space="preserve">
<style type="text/css">
	.st0{fill:#C91F24;}
	.st1{fill:#2D2D2D;}
</style>
<title>Asset 1</title>
<g id="Layer_2_1_">
	<g id="Layer_4">
		<path class="st0" d="M755.1,409.9c5.3-1.4,2.3,11.7-3.5,21.8c-3.3,5.6-190.8,67.3-286.4,210.7c0,0-110,149.9,76.8,237.5
			c0.8,0.4,1.4,1.2,1.6,2.1c0.5,2.6-2.6,8.1-4.2,7.6c-34.8-10.2-155.8-31.3-194.3-121c0,0-27.9-65.3,47.9-157.6
			C393,611,512.2,476.1,755.1,409.9z"/>
		<path class="st0" d="M782.4,285.9c18-5.4-1.6,36.2-1.6,36.2c-58.9,22.3-136.1,45.7-254.8,120.7
			c-207.2,130.9-337.8,340.4-75.3,462.4c2,0.9-0.1,7.6-5.1,7c-241.7-28.6-466.8-243.7,33.1-510.8
			C482.8,399.2,626.1,332.8,782.4,285.9z"/>
		<path class="st0" d="M352.4,928.2C-197.7,644,528.3,290.1,896.8,193.1c235.9-62.1,578-147.6,993.8-151.1
			c149.3-1.3,349.9,2.5,500,29.5c121.3,21.8,52.1-0.3,45.4-1.9c-189.1-46.9-303.4-72.1-670.7-69.3C1478.6,2.4,1190,48,911.1,117.5
			c-241.2,60.2-488.3,132.1-695.5,274.2C111,463.5-44.2,599.2,11.9,744.4C61.7,873.3,236,918.5,356.2,941.7
			C365.6,943.5,360.9,932.6,352.4,928.2z"/>
		<path class="st1" d="M669.2,845.7l-23.4,30.1h-30.1l76.6-95.6h35.1l76.9,95.6h-31.1l-24.1-30.1H669.2z M743.1,836.1L721,808.6
			c-4.3-5.5-8.2-11.4-11.7-17.4h-0.7c-3.5,6-7.3,11.7-11.4,17.3l-22.1,27.6H743.1z"/>
		<path class="st1" d="M860.5,780.2v56.6c0,21.4,22.4,30.5,52.5,30.5c33.4,0,54.8-9.4,54.8-30.5v-56.6h29.4V836
			c0,29.3-36.5,41.4-85.3,41.4c-46.1,0-80.9-11.2-80.9-40.8v-56.3H860.5z"/>
		<path class="st1" d="M1093.9,790.7h-68.6v-10.5h166.9v10.5h-68.9v85.1h-29.4V790.7z"/>
		<path class="st1" d="M1404.2,827c0,32.9-47.2,50.3-104.7,50.3c-59.5,0-101.3-19.6-101.3-48.5c0-30.3,44.5-50.2,104.7-50.2
			C1364.4,778.7,1404.2,798.7,1404.2,827z M1229.3,828.6c0,20.4,26.1,38.7,71.9,38.7c46.1,0,72.2-18,72.2-39.7
			c0-19-23.4-38.8-71.9-38.8C1253.4,788.8,1229.3,807.6,1229.3,828.6L1229.3,828.6z"/>
		<path class="st1" d="M1635.3,833.8c-1.7-13.3-3.7-29.3-3.3-41.3h-1c-8.8,12.6-18.3,24.7-28.4,36.3l-39.8,46.4h-22.1l-36.5-45.5
			c-10.7-13.5-19.7-25.8-26.1-37.1h-0.7c-0.7,11.9-2.3,27.9-4.3,42.3l-6,41h-27.8l15.7-95.6h37.1l38.5,46.2
			c9.4,11.8,17.1,22.3,22.7,32.2h1c5.7-9.6,13.7-20.1,23.7-32.2l40.1-46.2h37.1l14,95.6H1641L1635.3,833.8z"/>
		<path class="st1" d="M1750.6,845.7l-23.4,30.1h-30.1l76.6-95.6h35.1l76.9,95.6h-31.1l-24.1-30.1H1750.6z M1824.6,836.1l-22.1-27.5
			c-4.3-5.5-8.2-11.4-11.7-17.4h-0.7c-3.5,6-7.3,11.7-11.4,17.3l-22.1,27.6L1824.6,836.1z"/>
		<path class="st1" d="M1939.3,790.7h-68.6v-10.5h166.9v10.5h-68.9v85.1h-29.4V790.7z"/>
		<path class="st1" d="M2095.1,780.2v95.6H2066v-95.6H2095.1z"/>
		<path class="st1" d="M2341.9,827c0,32.9-47.2,50.3-104.7,50.3c-59.5,0-101.3-19.6-101.3-48.5c0-30.3,44.5-50.2,104.7-50.2
			C2302.1,778.7,2341.9,798.7,2341.9,827z M2167,828.6c0,20.4,26.1,38.7,71.9,38.7c46.1,0,72.2-18,72.2-39.7
			c0-19-23.4-38.8-71.9-38.8C2191.1,788.8,2167,807.6,2167,828.6L2167,828.6z"/>
		<path class="st1" d="M2383,875.8v-95.6h31.8l72.2,48.3c16.7,11.2,29.8,21.3,40.5,31.1l0.7-0.1c-2.7-12.8-3.3-24.4-3.3-39.3v-40
			h27.4v95.6h-29.4l-71.6-48.5c-15.7-10.6-30.8-21.6-42.1-31.9l-1,0.1c1.7,12.1,2.3,23.5,2.3,39.4v40.8L2383,875.8z"/>
		<path class="st1" d="M2101.8,691.7c-5.8,0-17.4-0.2-23.6-0.7c-7.6-0.6,11.3-35.7,12.3-38.9l13.1-25.5c7.6-4,253.3-0.8,262-0.8
			c0,0,9.1-2.8,2.7-9.2c-7-7-127.6-88.9-127.6-88.9c-28.4-18.4-57.5-39.7-57-66.7c1.1-60.3,62.4-145.3,139.1-140.6l354.7-2.3
			c6.3,0,10.5-0.6,10.5,4.3c0,2.2-8.5,21.9-8.5,21.9l-15.5,35.3c-1.6,4-3.3,4-11.5,4h-242.1c0,0-13.3,2.7-4.9,7.4
			c7.1,3.9,13.6,9.2,20.2,13.9c13.5,9.5,26.9,19,40.3,28.6c27.3,19.5,54.6,39.1,81.8,58.8c16.3,11.8,32.8,20.7,39.8,40.7
			c3,8.6,5.4,20.2,3.2,29.4c-6.2,25.7-30,107.6-125.1,127.8L2101.8,691.7z"/>
		<path class="st1" d="M1721.9,561.2c-5.9,0-8.8-2.4-8.8-6.3c-0.2-2.4,0.3-4.7,1.5-6.8l15.5-34.1c3.9-8.8,9-18.3,9-18.3l80.9-1.2
			c35.2-3.3,68.5-31.1,76.8-81c2.4-14.7-6.8-29.3-26.1-29.3l-110.9,1c0,0-120.6,265.5-134.7,303c-0.4,1-0.7,3.1-3.1,2.9l-172.9-1.4
			c-5.9,0-10.6,1.1-10.6-2.8c0-2.5,1.5-3.9,2.5-6.9l137-306.6c3.9-8.3,24-55.2,24-55.2h419.4c62.6,8.1,74.1,40.4,67,78
			c-18.5,97.2-98.3,160.5-183.3,163.7L1721.9,561.2z"/>
		<path class="st1" d="M1176.4,693h-46.5c-2-3.1-73.4-182.9-76.7-191.8v-5.1c4-8.7,19.2-41.1,19.2-41.1l93.3-0.9
			c20.6-1.8,43.7-25.7,45.3-40.2c0.9-8.7,8.5-23.3-16.2-29.5l-121.2-0.4l-0.5,7.2l-130.7,297c0,0-1.6,6.1-7.4,4.9H762
			c-6,0-9.6-2-9.6-6.1c0-2.7,0.7-5.3,2-7.7l107.2-243.5c4-8.7,53.3-117.5,53.3-117.5h440.9c46.9,0,68,46.3,51.6,87.1
			c-23.3,58.1-74.7,102.4-141.6,115.1l2.1,5.4c0.5,1,63.9,159,63.9,160.5c0,5.6-8.9,6.8-16.9,6.8H1176.4z"/>
	</g>
</g>
</svg>
