<svg xmlns="http://www.w3.org/2000/svg" viewBox="0 0 2687.8967 941.8843"><defs><style>.cls-1{fill:red;}.cls-2{fill:#1e1e1e;}</style></defs><title>Asset 1</title><g id="Layer_2" data-name="Layer 2"><g id="Layer_4" data-name="Layer 4"><path class="cls-1" d="M755.0826,409.9168c5.316-1.448,2.3328,11.7047-3.4819,21.7619-3.2593,5.6373-190.81,67.2514-286.3861,210.6548,0,0-110.0266,149.8814,76.7985,237.4969a2.9159,2.9159,0,0,1,1.61,2.121c.48,2.62-2.6441,8.0918-4.2111,7.6352C504.5624,879.4319,383.6,858.2637,345.0892,768.5523c0,0-27.8552-65.2856,47.8761-157.5559C392.9653,610.9964,512.22,476.0729,755.0826,409.9168Z"/><path class="cls-1" d="M782.3645,285.9158c18.0182-5.4-1.6348,36.2065-1.6348,36.2065-58.8864,22.299-136.0765,45.6931-254.7781,120.66C318.76,573.6369,188.1922,783.2228,450.6241,905.1893c1.9614.9116-.13,7.5884-5.079,7.0036-241.6568-28.554-466.79-243.7373,33.112-510.7532C482.7889,399.2327,626.0611,332.7635,782.3645,285.9158Z"/><path class="cls-1" d="M352.3928,928.1945c-550.0643-284.1914,175.9127-638.0854,544.429-735.128,235.9031-62.1211,578.0013-147.5547,993.7656-151.0917,149.3363-1.27,349.9285,2.5336,499.9537,29.4813,121.2848,21.7854,52.1336-.2557,45.45-1.9141C2246.9176,22.6236,2132.58-2.5828,1765.2913.21,1478.5747,2.39,1189.96,47.981,911.1016,117.5361,669.9167,177.6944,422.7945,249.6642,215.6183,391.7407,111.01,463.4788-44.2362,599.2,11.8769,744.4365c49.796,128.8863,224.167,174.0693,344.29,197.2464C365.5628,943.4958,360.8944,932.5868,352.3928,928.1945Z"/><path d="M669.172,845.7492l-23.4087,30.0586H615.6661l76.58-95.563H727.36l76.9145,95.563h-31.1l-24.0776-30.0586Zm73.9048-9.6411L721.006,808.6017a147.7035,147.7035,0,0,1-11.7046-17.4394h-.669a187.8277,187.8277,0,0,1-11.37,17.2978l-22.0708,27.648Z"/><path d="M860.4547,780.2448v56.5723c0,21.41,22.4053,30.4839,52.5024,30.4839,33.4415,0,54.8438-9.358,54.8438-30.4839V780.2448h29.4277v55.7217c0,29.3491-36.4507,41.4009-85.2749,41.4009-46.1484,0-80.9272-11.2012-80.9272-40.834V780.2448Z"/><path d="M1093.8683,790.737h-68.5542V780.2448h166.8716V790.737H1123.297v85.0708h-29.4287Z"/><path d="M1404.2023,827.0339c0,32.894-47.1524,50.3335-104.6709,50.3335-59.5254,0-101.3272-19.5664-101.3272-48.49,0-30.3418,44.4771-50.1919,104.6709-50.1919C1364.4069,778.6852,1404.2023,798.6769,1404.2023,827.0339Zm-174.8975,1.5595c0,20.417,26.084,38.7076,71.8984,38.7076,46.149,0,72.233-18.0069,72.233-39.7,0-18.9991-23.4087-38.8487-71.8985-38.8487C1253.3824,788.7521,1229.3048,807.61,1229.3048,828.5934Z"/><path d="M1635.2775,833.84c-1.6719-13.3276-3.6788-29.35-3.3438-41.2592h-1.0029a422.5089,422.5089,0,0,1-28.4258,36.2968L1562.71,875.24h-22.0713l-36.45-45.5127c-10.7012-13.47-19.73-25.8047-26.084-37.1474h-.6689c-.669,11.91-2.3409,27.9316-4.3477,42.2519l-6.0195,40.9756h-27.7559l15.7168-95.563h37.12l38.4571,46.2222c9.3642,11.768,17.0556,22.26,22.74,32.185h1.0029c5.6856-9.6416,13.711-20.1338,23.7432-32.185l40.13-46.2222h37.1191l14.0459,95.563H1640.963Z"/><path d="M1750.6456,845.7492l-23.4092,30.0586H1697.14l76.58-95.563h35.1133l76.9151,95.563h-31.1006L1830.57,845.7492Zm73.9053-9.6411L1802.48,808.6017a147.786,147.786,0,0,1-11.7051-17.4394h-.6679a188.16,188.16,0,0,1-11.37,17.2978l-22.0712,27.648Z"/><path d="M1939.254,790.737H1870.7V780.2448h166.8711V790.737h-68.8887v85.0708H1939.254Z"/><path d="M2095.087,780.2448v95.563h-29.0937v-95.563Z"/><path d="M2341.8829,827.0339c0,32.894-47.1513,50.3335-104.6709,50.3335-59.5254,0-101.3261-19.5664-101.3261-48.49,0-30.3418,44.4765-50.1919,104.6709-50.1919C2302.088,778.6852,2341.8829,798.6769,2341.8829,827.0339Zm-174.8974,1.5595c0,20.417,26.0849,38.7076,71.8994,38.7076,46.1484,0,72.2324-18.0069,72.2324-39.7,0-18.9991-23.4092-38.8487-71.8984-38.8487C2191.0636,788.7521,2166.9855,807.61,2166.9855,828.5934Z"/><path d="M2383.0128,875.8078v-95.563h31.7695l72.2325,48.3486c16.7207,11.2012,29.7627,21.2676,40.4638,31.0508l.669-.1416c-2.6748-12.7607-3.3438-24.3872-3.3438-39.2744V780.2448h27.4219v95.563H2522.797l-71.5645-48.49c-15.7168-10.6338-30.7656-21.5513-42.1357-31.9019l-1.0029.1421c1.6718,12.0518,2.3408,23.5361,2.3408,39.416v40.834Z"/><path class="cls-2" d="M2101.798,691.7439c-5.7608,0-17.4153-.1992-23.6068-.65-7.6461-.5569,11.2728-35.7012,12.2526-38.9338l13.1314-25.501c7.6458-3.9758,253.3245-.7778,261.9853-.7778,0,0,9.1478-2.75,2.72-9.1779-7.0162-7.0162-127.6318-88.9156-127.6318-88.9156-28.3729-18.3621-57.5227-39.7392-57.0408-66.7269,1.0763-60.2694,62.422-145.2924,139.0959-140.6064l354.7-2.2985c6.27,0,10.4928-.592,10.4928,4.2679,0,2.1551-8.4707,21.907-8.4707,21.907L2663.9,379.6794c-1.5652,4.0213-3.347,3.9761-11.4983,3.9761H2410.3267s-13.3115,2.6958-4.893,7.3573c7.0754,3.9183,13.6118,9.2213,20.2071,13.8681q20.1943,14.2283,40.2637,28.6331,40.9818,29.3007,81.8363,58.7793c16.3142,11.7577,32.8,20.691,39.8007,40.731,3.0115,8.6211,5.4334,20.2483,3.2273,29.4151-6.1812,25.6845-29.9717,107.6481-125.0861,127.8331Z"/><path class="cls-2" d="M1721.9156,561.1925c-5.8557,0-8.7736-2.4216-8.7736-6.3122a12.2771,12.2771,0,0,1,1.4689-6.8284l15.4558-34.1155c3.8906-8.7736,8.9793-18.3117,8.9793-18.3117l80.926-1.1814c35.208-3.2911,68.4593-31.1093,76.772-80.9859,2.445-14.67-6.7915-29.3393-26.0793-29.3393l-110.9442,1.0455s-120.5946,265.5189-134.68,303.03c-.3718.99-.72,3.0655-3.0891,2.89l-172.8592-1.3627c-5.8557,0-10.6312,1.0561-10.6312-2.8345,0-2.4614,1.4992-3.931,2.4718-6.8688L1577.937,373.3759c3.91-8.2973,24.0445-55.1737,24.0445-55.1737h419.4074c62.6387,8.0589,74.1184,40.38,66.9782,77.96-18.4651,97.1853-98.3021,160.4628-183.2639,163.6556Z"/><path class="cls-2" d="M1176.4176,693.03h-46.5c-2.0155-3.0739-73.4393-182.8939-76.7354-191.8387v-5.0781c4.0323-8.708,19.2375-41.1148,19.2375-41.1148l93.3428-.9367c20.5507-1.782,43.7294-25.7369,45.257-40.1789.9165-8.6642,8.487-23.2809-16.2153-29.4875l-121.228-.43-.532,7.2362-130.71,296.97s-1.5857,6.105-7.3931,4.8587H762.025c-6.0491,0-9.5786-2.0493-9.5786-6.1478a15.9279,15.9279,0,0,1,2.0168-7.6834L861.6961,435.74c4.0337-8.708,53.3286-117.5381,53.3286-117.5381h440.861c46.8849,0,67.962,46.3022,51.6334,87.07-23.2771,58.1159-74.7162,102.3635-141.6221,115.1032l2.0966,5.3912c.5042,1.0247,63.9185,158.9573,63.9185,160.4929,0,5.6341-8.8609,6.7708-16.927,6.7708Z"/></g></g></svg>