<svg xmlns="http://www.w3.org/2000/svg" viewBox="0 0 2688.3967 942.8843"><defs><style>.cls-1,.cls-2{fill:#1e1e1e;}.cls-1{stroke:#000;stroke-miterlimit:10;}</style></defs><title>Asset 1</title><g id="Layer_2" data-name="Layer 2"><g id="Layer_4" data-name="Layer 4"><path class="cls-1" d="M755.5826,410.4168c5.316-1.448,2.3328,11.7047-3.4819,21.7619-3.2593,5.6373-190.81,67.2514-286.3861,210.6548,0,0-110.0266,149.8814,76.7985,237.4969a2.9159,2.9159,0,0,1,1.61,2.121c.48,2.62-2.6441,8.0918-4.2111,7.6352C505.0624,879.9319,384.1,858.7637,345.5892,769.0523c0,0-27.8552-65.2856,47.8761-157.5559C393.4653,611.4964,512.72,476.5729,755.5826,410.4168Z"/><path class="cls-1" d="M782.8645,286.4158c18.0182-5.4-1.6348,36.2065-1.6348,36.2065-58.8864,22.299-136.0765,45.6931-254.7781,120.66C319.26,574.1369,188.6922,783.7228,451.1241,905.6893c1.9614.9116-.13,7.5884-5.079,7.0036-241.6568-28.554-466.79-243.7373,33.112-510.7532C483.2889,399.7327,626.5611,333.2635,782.8645,286.4158Z"/><path class="cls-1" d="M352.8928,928.6945c-550.0643-284.1914,175.9127-638.0854,544.429-735.128,235.9031-62.1211,578.0013-147.5547,993.7656-151.0917,149.3363-1.27,349.9285,2.5336,499.9537,29.4813,121.2848,21.7854,52.1336-.2557,45.45-1.9141C2247.4176,23.1236,2133.08-2.0828,1765.7913.71,1479.0747,2.89,1190.46,48.481,911.6016,118.0361,670.4167,178.1944,423.2945,250.1642,216.1183,392.2407,111.51,463.9788-43.7362,599.7,12.3769,744.9365c49.796,128.8863,224.167,174.0693,344.29,197.2464C366.0628,943.9958,361.3944,933.0868,352.8928,928.6945Z"/><path d="M669.6725,846.2492l-23.4087,30.0581H616.1666l76.58-95.563H727.86l76.9145,95.563h-31.1l-24.0776-30.0581Zm73.9048-9.6416L721.506,809.1013a147.7657,147.7657,0,0,1-11.7041-17.44h-.669a187.7747,187.7747,0,0,1-11.37,17.2979L675.692,836.6076Z"/><path d="M860.9552,780.7443v56.5723c0,21.4092,22.4053,30.4834,52.5024,30.4834,33.441,0,54.8433-9.3574,54.8433-30.4834V780.7443H997.73V836.466c0,29.3491-36.4512,41.4009-85.2754,41.4009-46.1484,0-80.9272-11.2007-80.9272-40.834V780.7443Z"/><path d="M1094.3693,791.2365h-68.5547V780.7443h166.8716v10.4922H1123.797v85.0708h-29.4277Z"/><path d="M1404.7023,827.5334c0,32.894-47.1519,50.3335-104.67,50.3335-59.5254,0-101.3267-19.5664-101.3267-48.49,0-30.3418,44.4766-50.1919,104.67-50.1919C1364.9073,779.1847,1404.7023,799.1764,1404.7023,827.5334Zm-174.897,1.56c0,20.4169,26.084,38.707,71.8984,38.707,46.149,0,72.2329-18.0064,72.2329-39.6992,0-19-23.4087-38.8492-71.8984-38.8492C1253.8829,789.2516,1229.8053,808.1091,1229.8053,829.093Z"/><path d="M1635.7784,834.339c-1.6718-13.3276-3.6787-29.35-3.3447-41.2592h-1.0029a422.3439,422.3439,0,0,1-28.4248,36.2968L1563.2111,875.74H1541.14l-36.4512-45.5132c-10.7012-13.4692-19.73-25.8047-26.084-37.1474h-.6689c-.669,11.91-2.3409,27.9316-4.3467,42.2519l-6.0195,40.9756h-27.7569l15.7178-95.563h37.12l38.457,46.2217c9.3633,11.7686,17.0547,22.26,22.74,32.1855h1.0029c5.6846-9.6416,13.7109-20.1337,23.7432-32.1855l40.1289-46.2217h37.12l14.0449,95.563H1641.463Z"/><path d="M1751.1456,846.2492l-23.4092,30.0581H1697.64l76.58-95.563h35.1133l76.9151,95.563h-31.1006L1831.07,846.2492Zm73.9053-9.6416L1802.98,809.1013a147.7948,147.7948,0,0,1-11.7051-17.44h-.6679a188.1067,188.1067,0,0,1-11.37,17.2979l-22.0712,27.6479Z"/><path d="M1939.754,791.2365H1871.2V780.7443h166.8711v10.4922h-68.8887v85.0708H1939.754Z"/><path d="M2095.587,780.7443v95.563h-29.0937v-95.563Z"/><path d="M2342.3829,827.5334c0,32.894-47.1513,50.3335-104.6709,50.3335-59.5254,0-101.3261-19.5664-101.3261-48.49,0-30.3418,44.4765-50.1919,104.6709-50.1919C2302.588,779.1847,2342.3829,799.1764,2342.3829,827.5334Zm-174.8974,1.56c0,20.4169,26.0849,38.707,71.8994,38.707,46.1484,0,72.2324-18.0064,72.2324-39.6992,0-19-23.4092-38.8492-71.8984-38.8492C2191.5636,789.2516,2167.4855,808.1091,2167.4855,829.093Z"/><path d="M2383.5128,876.3073v-95.563h31.7695l72.2325,48.3487c16.7207,11.2011,29.7627,21.2675,40.4638,31.0507l.669-.1416c-2.6748-12.7607-3.3438-24.3872-3.3438-39.2744V780.7443h27.4219v95.563H2523.297l-71.5645-48.49c-15.7168-10.6338-30.7656-21.5513-42.1357-31.9019l-1.0029.1421c1.6718,12.0518,2.3408,23.5361,2.3408,39.416v40.834Z"/><path class="cls-2" d="M2102.298,692.2439c-5.7608,0-17.4153-.1992-23.6068-.65-7.6461-.5569,11.2728-35.7012,12.2526-38.9338l13.1314-25.501c7.6458-3.9758,253.3245-.7778,261.9853-.7778,0,0,9.1478-2.75,2.72-9.1779-7.0162-7.0162-127.6318-88.9156-127.6318-88.9156-28.3729-18.3621-57.5227-39.7392-57.0408-66.7269,1.0763-60.2694,62.422-145.2924,139.0959-140.6064l354.7-2.2985c6.27,0,10.4928-.592,10.4928,4.2679,0,2.1551-8.4707,21.907-8.4707,21.907L2664.4,380.1794c-1.5652,4.0213-3.347,3.9761-11.4983,3.9761H2410.8267s-13.3115,2.6958-4.893,7.3573c7.0754,3.9183,13.6118,9.2213,20.2071,13.8681q20.1943,14.2283,40.2637,28.6331,40.9818,29.3007,81.8363,58.7793c16.3142,11.7577,32.8,20.691,39.8007,40.731,3.0115,8.6211,5.4334,20.2483,3.2273,29.4151-6.1812,25.6845-29.9717,107.6481-125.0861,127.8331Z"/><path class="cls-2" d="M1722.4156,561.6925c-5.8557,0-8.7736-2.4216-8.7736-6.3122a12.2771,12.2771,0,0,1,1.4689-6.8284l15.4558-34.1155c3.8906-8.7736,8.9793-18.3117,8.9793-18.3117l80.926-1.1814c35.208-3.2911,68.4593-31.1093,76.772-80.9859,2.445-14.67-6.7915-29.3393-26.0793-29.3393l-110.9442,1.0455s-120.5946,265.5189-134.68,303.03c-.3718.99-.72,3.0655-3.0891,2.89l-172.8592-1.3627c-5.8557,0-10.6312,1.0561-10.6312-2.8345,0-2.4614,1.4992-3.931,2.4718-6.8688L1578.437,373.8759c3.91-8.2973,24.0445-55.1737,24.0445-55.1737h419.4074c62.6387,8.0589,74.1184,40.38,66.9782,77.96-18.4651,97.1853-98.3021,160.4628-183.2639,163.6556Z"/><path class="cls-2" d="M1176.9176,693.53h-46.5c-2.0155-3.0739-73.4393-182.8939-76.7354-191.8387v-5.0781c4.0323-8.708,19.2375-41.1148,19.2375-41.1148l93.3428-.9367c20.5507-1.782,43.7294-25.7369,45.257-40.1789.9165-8.6642,8.487-23.2809-16.2153-29.4875l-121.228-.43-.532,7.2362-130.71,296.97s-1.5857,6.105-7.3931,4.8587H762.525c-6.0491,0-9.5786-2.0493-9.5786-6.1478a15.9279,15.9279,0,0,1,2.0168-7.6834L862.1961,436.24c4.0337-8.708,53.3286-117.5381,53.3286-117.5381h440.861c46.8849,0,67.962,46.3022,51.6334,87.07-23.2771,58.1159-74.7162,102.3635-141.6221,115.1032l2.0966,5.3912c.5042,1.0247,63.9185,158.9573,63.9185,160.4929,0,5.6341-8.8609,6.7708-16.927,6.7708Z"/></g></g></svg>