<svg id="XPS_AUTOMATION_LOGO_FINAL_APPROVED_LOGO_Image" data-name="XPS_AUTOMATION_LOGO_FINAL_APPROVED_LOGO Image" xmlns="http://www.w3.org/2000/svg" viewBox="0 0 3000 1079"><defs><style>.cls-1{fill:#fffffe;}.cls-2{fill:#ee2325;}.cls-3{fill:#090808;}</style></defs><title>logogr</title><path class="cls-1" d="M1500.9,1080H5.9c-4.5,0-5-1.3-5-5.2Q1.1,540.5.9,5.9c0-4.5,1.3-5,5.2-5h2990c4.5,0,5,1.3,5,5.2q-.2,534.4,0,1069c0,4.5-1.3,5-5.2,5Zm357.5-234.9.9,1.2-37.5,74.6c-.7,1.5-1.9,2.8-1.6,5,14.3,0,28.5-.1,42.8.1,3.2.1,4.6-1.1,6-3.8,15.6-31.6,31.4-63.2,47.1-94.8.6-1.2,1.9-2.4,1.2-4.2h-66.5c-4-.1-6.7,1.2-9.6,3.9-24.1,23.4-48.5,46.7-72.7,69.9l-6.4,6.3c-1.1-26-2.3-50.7-3.2-75.5-.2-3.8-1.2-4.7-4.9-4.6h-64c-3.6-.1-5.5,1-7.1,4.4-11.3,22.9-22.8,45.7-34.2,68.5l-15,29.8h45.5c2.2,0,2.7-1.5,3.4-3q12.5-24.7,24.7-49.5c5-10.1,10-20.3,15.7-31.6.3,5.1.6,8.8.7,12.5.5,22.3,1.1,44.6,1.5,66.9.1,3.5,1,4.8,4.9,4.7,13.7-.3,27.3-.1,41,0a8.4,8.4,0,0,0,6.2-2.4c14.8-14.6,29.8-29.1,44.7-43.6Zm15.6-796c-62.3-.5-124.6.5-186.8,3.7s-122.6,7.9-183.7,14.5c-59,6.3-117.9,14.3-176.6,23.5s-116.8,19.8-174.8,31.6c-82,16.6-163.4,35.8-244.4,56.7-100.3,25.8-200,53.9-297.5,89-115.8,41.8-227.1,92.7-330.1,160.7C225,465.1,173.2,505.5,128.8,554.6c-25.6,28.3-47.8,59-63.3,94C48,688.2,41.4,729.2,52.2,771.8c10,40.1,32,73.1,62.1,101s68.2,49.6,107.4,66.1c51.2,21.8,104.7,35.7,159,47l22.5,4.4c1.8.3,3.7.7,5-1.1s.1-3.6-.7-5.2c-2-3.8-5.4-6.2-9.2-8.1A695,695,0,0,1,332,937.2c-34.1-22.8-65.8-48.3-91.1-81-42.7-55-52.4-114.7-24.3-179.4,16.6-38.3,42-70.4,70.8-100.1,37.7-38.5,80.1-71.2,124.8-101,58.2-38.9,119.4-72.5,182.4-102.8C696,324.1,800.5,283.3,908.7,252c69.5-20,139.8-37.1,210.1-54q95.5-23.1,192-41.8,76.5-14.7,153.5-26.4,79.2-12.2,158.9-20.6c44.9-4.8,89.8-8.5,134.9-11.5,53.1-3.5,106.4-5.7,159.6-6.4,47.8-.7,95.7-.8,143.5.2,27.6.6,55.2,1.2,82.9,2.1q77.8,2.4,155.5,9.2,81.2,7,161.2,21.7c14.7,2.7,29.5,5.4,44.6,5.5,1,0,2.6.5,3.1-.8s-1.4-2.1-2.4-2.6a120.2,120.2,0,0,0-24-8.5c-37.2-9.2-74.6-18.3-112.1-26.5a1651.9,1651.9,0,0,0-212-32.4c-53-4.7-106-7.3-159.1-8.7C1957.3,49.4,1915.7,48.7,1874,49.1ZM1930,367H1764.5c-14.9,0-29.7.1-44.5-.1-3,0-4.1.9-5.1,3.7-2,5.8-4.6,11.3-7.1,16.9-8.4,18.9-17,37.8-25.4,56.7-10.9,24.3-21.6,48.7-32.4,73-6.2,13.8-12.6,27.5-18.8,41.2L1604,619.6l-18.7,41.7c-10.3,23.2-20.4,46.4-30.8,69.6-2.9,6.5-2,8,5.1,8.1,27.6.6,55.1-.3,82.7.7,31.5,1.2,63,.3,94.5.4,2.6,0,3.5-1.1,4.2-3.1,6.3-17.1,14-33.7,21.3-50.5,8.1-19,16.9-37.8,25.3-56.7,10.9-24.3,21.6-48.7,32.5-73.1,6.7-15.1,13.8-30,20.6-45.1,11.4-25.1,22.6-50.4,33.8-75.6.7-1.6,1.6-2,3.3-2,37.3,0,74.6-.3,112,.1,14.6.2,22.9,12.8,22,25-.6,7.6-2.7,15.3-5.2,22.6-6.4,18.5-17.1,34.2-32.9,46.1-12.1,9.1-25.8,14.8-40.7,15l-76.2,1.1c-2.8.1-3.8,1.1-5,3.4-8.1,16.6-15.5,33.5-23,50.4-3.4,7.7-.3,12.3,7.8,12.3,50.4-.1,100.9.5,151.3-1,19.6-.6,39.2.9,58.7-2.8A193.2,193.2,0,0,0,2163,535.7c13.4-17,24.3-35.4,31.4-55.8s14-41.8,10.7-64.5c-1.6-11.1-6.3-20.7-14.4-27.9-15-13.5-33.5-20.1-53.3-20.3C2068.3,366.6,1999.1,367,1930,367Zm719.8,66h122c4.1,0,6.7-1.3,8.3-5.2,3.8-9.2,8-18.2,12-27.4s8.3-18,11-27.7c1.1-3.7,0-5-3.6-5.9s-7.4.1-11,.2c-50.7.5-101.5-.7-152.2.7-52.9,1.4-105.9-.9-158.8,1.1-15.9.6-32,.3-48,0s-30.4,3.9-44.4,10.6c-17.2,8.3-31.8,20-44.5,34.2a181.1,181.1,0,0,0-25.6,36.6,146.4,146.4,0,0,0-15.8,46.8c-.9,5.6-2.1,11.4-1.1,17.2,2.2,12.9,8.8,23.2,18,32.5a175.4,175.4,0,0,0,29.3,23.8c29.8,19.8,59.3,40.2,88.8,60.5,15.7,10.8,31.5,21.5,46.7,33.1,2.1,1.7,4.7,3.3,3.9,6s-3.7,4-7.2,3.9c-20.1-.7-40.2-.7-60.3-.8-64.7-.3-129.4-1.4-194.2.7-2.7.1-4.9.7-6.3,3.5-7.1,14.6-14.4,29.1-21.4,43.8a68.8,68.8,0,0,0-4.3,13.3c-.4,1.9-1.2,5,2.5,5.4s6.7,1.1,10.2,1.1c42.1-.7,84.1-.3,126.2-.8,78.5-1,157-.2,235.5-.5,6.8,0,13.9.1,20.6-1.4a159.6,159.6,0,0,0,43.3-17.1,148.7,148.7,0,0,0,44.5-39,164.3,164.3,0,0,0,24.2-43.8c5.5-15.2,11.4-30.3,8-47.1-2.6-12.9-8.2-24.1-18-32.6-13.1-11.4-27.9-20.4-41.9-30.7-17.9-13.2-36.3-25.9-54.5-38.9-23.2-16.6-46-33.8-70.1-49.3-1.2-.8-2.6-1.6-2.6-3.4s2-1.9,3.2-2.4a16.6,16.6,0,0,1,6.7-1.1Zm-1213,307-2.2-3.1q-74.7-98.4-149.5-196.8c-2.9-3.8-2-5.1,1.2-7.6q104.7-81.7,209.2-163.8c1.2-.9,2.9-1.5,3.1-3.6-40.1,0-79.9.1-119.7-.1a17.1,17.1,0,0,0-11.3,3.9c-43.1,33.5-86.4,66.8-129.5,100.3-3.8,2.9-5.3,2.9-8.3-1-25-33.3-50.3-66.3-75.4-99.5a8.2,8.2,0,0,0-7.4-3.7H953.4c2,2.7,3.4,4.7,4.9,6.6q73.7,97.5,147.2,194.8c2.5,3.3,2,4.5-1,6.8L928.4,710.5l-37.2,29.1,2.1.4h123a7.9,7.9,0,0,0,5.3-2.2l131.3-101.3c3.2-2.6,4.6-2.6,7.1.8,25.2,33.1,50.7,66,75.9,99.1a8.2,8.2,0,0,0,7.4,3.6h193.5ZM226.2,760.5c.1,30.4,9.7,57.9,27.3,82.7,22.1,31.1,51.7,53.3,84.8,71.2C382.1,938,429,951.9,478,959.3c4.9.8,9.9,1.5,14.8,2,3.1.3,5-1.4,5.9-4.3s-1.1-4.1-3.2-5.2c-6.9-3.3-13.8-6.6-20.5-10.1-34.3-18.4-65.8-40.4-90-71.4s-36-66.3-32.6-106c2.6-31.5,13.9-60.3,29.3-87.6,22.1-38.9,51.3-72,83.8-102.3,36.3-33.8,76.2-62.7,118.3-88.7,47.1-29.1,95.8-55,146.7-76.7,30.7-13,62.1-24.2,93.3-35.8,1.8-.7,4.1-.8,5.1-2.9,4.1-9.3,8.1-18.6,8.7-28.9.4-6.5-2.2-8.6-8.6-7s-10.8,3.2-16.2,4.9q-91,28.2-179.3,64.2c-45.8,18.6-91.9,36.5-135,60.9-59,33.4-116,69.7-166.9,114.7-30.2,26.7-57.4,56-78.1,90.9C237,697.9,226.4,727.5,226.2,760.5Zm160.7,24.1a86.1,86.1,0,0,0,2.6,25.3c6.1,22.1,19.6,39.8,35.6,55.5,23,22.4,50.7,37.2,80.3,49,25.1,9.9,51.3,16.5,77.3,23.4,3.6,1,6.3,1.2,7.9-3.1s.4-6.2-3.6-8.1c-27.5-13.2-53-29.4-73.3-52.5s-31.8-49.6-32.8-80.5c-1-36,10.4-68.4,29.5-98.3,24.5-38.2,55.5-70.5,90.4-99.2,39.6-32.5,82.9-59.3,128.6-82.3,21.5-10.8,43.5-20.4,65.4-30.3,2.3-1.1,4.5-2.1,5.7-4.6,2.1-4.7,4.2-9.4,4.8-14.6s-.4-7-6-5.4a916.5,916.5,0,0,0-125.8,44.5c-71.7,31.5-138.3,71.3-198.2,122-23.9,20.2-45.3,42.5-61.1,69.8S387,752.1,386.9,784.6ZM2867.6,894.3l-3.6-4.1c-17.8-21.1-35.7-42.2-53.4-63.4a8.9,8.9,0,0,0-8-3.6q-21.7.3-43.5,0c-3.3-.1-4.9,1-6.4,4q-23.4,47.3-47.2,94.3c-.6,1.3-1.8,2.5-1.2,4.4,13.7,0,27.5-.2,41.3.1,4,.1,5.8-1.2,7.4-4.6,11.1-22.5,22.3-44.8,33.7-67.6l5.1,5.8,54.3,63.3c1.4,1.6,2.6,3.1,5.3,3.1,14.9-.1,29.9-.1,44.9,0a4,4,0,0,0,4.2-2.7q24.1-48.3,48.4-96.5c1.5-2.9,1.2-3.6-2.1-3.6-13,.1-26,.2-39-.1-3.6,0-5.3,1.3-6.8,4.3C2890.1,849.6,2878.9,871.6,2867.6,894.3ZM1531.9,820c-19.3.3-37.2,1.1-54.9,4.1-21.4,3.7-42,9.9-60.8,21-14.3,8.4-25.5,19.7-31.1,35.7-4.3,12.4-1.1,22.4,9.3,30.4,13.3,10.2,29,13.8,45.1,15.6,31.9,3.4,63.7,2.9,95.3-3,22.5-4.2,44-11.4,62.8-25,10.7-7.7,19.3-17.3,23.9-29.9s1.4-24.5-10.5-32.5a66.7,66.7,0,0,0-16.9-8.4C1573.5,821,1552,820.7,1531.9,820Zm1068.2.7c-6.5,0-13-.2-19.4,0-27.3,1-53.8,5.7-79,16.3-17.2,7.2-32.4,17-42.3,33.4-12.1,20.2-7.5,35.7,13.4,46.4,14.8,7.6,30.9,9.8,47.2,11,26.1,1.9,52.2,1.3,78-2.9,23-3.7,44.9-10.4,64.7-23,13-8.3,23.5-19,28.6-34,4.4-13,.9-23.5-10.4-31.3a68.2,68.2,0,0,0-17.3-8.6C2643,820.9,2621.5,820.7,2600.1,820.7Zm-1573.4,2.6H977.8c-2.7,0-3.1,2.1-3.9,3.8-9.9,19.7-19.9,39.4-29.7,59.2a55.6,55.6,0,0,0-3.5,8.8c-2.7,9.5,0,16.6,8.4,21.8s15.1,6.7,23.3,8.1c20.7,3.8,41.6,4.1,62.6,3.4s39.8-2.7,59.1-8.4,34.2-14.5,43.4-32.4c10.2-20.3,20.3-40.6,30.7-60.8,1.7-3.3.6-3.5-2.3-3.5-14.5.1-29,.2-43.5-.1-3.4,0-4.9,1.2-6.3,4.1-9.6,19.3-19.4,38.5-28.9,57.9-5.3,10.9-13.7,18.1-25.5,21.2a126.7,126.7,0,0,1-56.8,1.5c-12.2-2.4-15.2-9.3-9.6-20.4l29.5-58.8C1025.6,827,1026.9,825.6,1026.7,823.3ZM890.8,925.9a7.9,7.9,0,0,0,0-1.6q-16.3-48.7-32.6-97.5c-.9-2.6-1.9-3.6-4.8-3.6H803a9.4,9.4,0,0,0-5.9,2.1L666.6,922.5c-1.1.8-2.9,1.4-3.1,3.4h49.2a9,9,0,0,0,5.9-2.2c7.3-5.7,14.7-11.3,22-17.1a7.7,7.7,0,0,1,5-1.8c27.5,0,54.9.1,82.4,0,2.5,0,3.6.8,4,3.2,1,4.9,2.2,9.7,3.4,14.5.4,2,.9,3.5,3.8,3.4C856.3,925.8,873.5,925.9,890.8,925.9Zm1236.8,0c0-.7.2-1.1.1-1.3q-16.5-49.4-32.8-98.5c-.9-2.7-2.5-2.9-4.9-2.9h-50a9.8,9.8,0,0,0-6.3,2.3l-126.9,94.4-7.6,6h51.2c2.5,0,4-1.5,5.7-2.7,7.1-5.5,14.2-11,21.2-16.6a8.5,8.5,0,0,1,5.5-1.8c27.1,0,54.3.1,81.4-.1,3.3,0,4.3,1.3,4.9,4.1.9,4.7,2,9.4,3.2,14,.4,1.5.6,3.1,3,3.1Zm-906.5,0c16.1,0,31.1-.1,46.1.1,4,.1,6.1-1,7.9-4.7,12.4-25.3,25-50.5,37.4-75.8,1.4-2.8,2.9-3.7,6-3.6,21.3.1,42.7.1,64,0,1.5,0,3.5,1,4.5-1,3-5.6,5.8-11.4,8.7-17.2l-1.2-.4H1203.1c-1.1,0-2.4-.4-3.1,1-2.9,5.6-5.7,11.3-9,17.8h72.2C1249.2,870.1,1235.4,897.6,1221.1,925.9ZM2230.6,842l-41.9,83.9c16.3,0,31.8-.1,47.3.1,3.1,0,4.6-1,6-3.8,12.5-25.4,25.2-50.7,37.7-76.1,1.5-3.2,3.2-4.3,6.7-4.3,21.1.2,42.3.1,63.4.1,1.7,0,3.9.8,5-1.3,2.8-5.6,5.5-11.2,8.5-17.4h-191c-1.7,0-4-.9-5,1.1-3,5.7-5.7,11.4-8.7,17.6Zm211.7-18.7h-48.5c-2.4,0-3,1.5-3.9,3.2q-23.8,47.7-47.9,95.4c-1.9,3.8-.7,4.2,2.9,4.2q20.7-.3,41.4,0c3.5.1,5.2-1,6.8-4.2,13.4-27.1,27.1-54.2,40.6-81.2Z"/><path class="cls-2" d="M1874,49.1c41.7-.4,83.3.3,124.9,1.4,53.1,1.4,106.1,4,159.1,8.7a1651.9,1651.9,0,0,1,212,32.4c37.5,8.2,74.9,17.3,112.1,26.5a120.2,120.2,0,0,1,24,8.5c1,.5,2.9.8,2.4,2.6s-2.1.8-3.1.8c-15.1-.1-29.9-2.8-44.6-5.5q-80.1-14.6-161.2-21.7-77.7-6.7-155.5-9.2c-27.7-.9-55.3-1.5-82.9-2.1-47.8-1-95.7-.9-143.5-.2-53.2.7-106.5,2.9-159.6,6.4-45.1,3-90,6.7-134.9,11.5q-79.7,8.4-158.9,20.6-77,11.7-153.5,26.4-96.5,18.8-192,41.8c-70.3,16.9-140.6,34-210.1,54C800.5,283.3,696,324.1,594.6,372.9c-63,30.3-124.2,63.9-182.4,102.8-44.7,29.8-87.1,62.5-124.8,101-28.8,29.7-54.2,61.8-70.8,100.1-28.1,64.7-18.4,124.4,24.3,179.4,25.3,32.7,57,58.2,91.1,81a695,695,0,0,0,66.3,38.7c3.8,1.9,7.2,4.3,9.2,8.1.8,1.6,2,3.3.7,5.2s-3.2,1.4-5,1.1l-22.5-4.4c-54.3-11.3-107.8-25.2-159-47-39.2-16.5-75.9-37.1-107.4-66.1s-52.1-60.9-62.1-101C41.4,729.2,48,688.2,65.5,648.6c15.5-35,37.7-65.7,63.3-94,44.4-49.1,96.2-89.5,151.3-125.8,103-68,214.3-118.9,330.1-160.7,97.5-35.1,197.2-63.2,297.5-89,81-20.9,162.4-40.1,244.4-56.7q87-17.7,174.8-31.6c58.7-9.2,117.6-17.2,176.6-23.5q91.6-9.9,183.7-14.5C1749.4,49.6,1811.7,48.6,1874,49.1Z"/><path class="cls-3" d="M1930,367c69.1,0,138.3-.4,207.4.2,19.8.2,38.3,6.8,53.3,20.3,8.1,7.2,12.8,16.8,14.4,27.9,3.3,22.7-3.4,43.7-10.7,64.5s-18,38.8-31.4,55.8a193.2,193.2,0,0,1-116.4,70.5c-19.5,3.7-39.1,2.2-58.7,2.8-50.4,1.5-100.9.9-151.3,1-8.1,0-11.2-4.6-7.8-12.3,7.5-16.9,14.9-33.8,23-50.4,1.2-2.3,2.2-3.3,5-3.4l76.2-1.1c14.9-.2,28.6-5.9,40.7-15,15.8-11.9,26.5-27.6,32.9-46.1,2.5-7.3,4.6-15,5.2-22.6.9-12.2-7.4-24.8-22-25-37.4-.4-74.7-.1-112-.1-1.7,0-2.6.4-3.3,2-11.2,25.2-22.4,50.5-33.8,75.6-6.8,15.1-13.9,30-20.6,45.1-10.9,24.4-21.6,48.8-32.5,73.1-8.4,18.9-17.2,37.7-25.3,56.7-7.3,16.8-15,33.4-21.3,50.5-.7,2-1.6,3.1-4.2,3.1-31.5-.1-63,.8-94.5-.4-27.6-1-55.1-.1-82.7-.7-7.1-.1-8-1.6-5.1-8.1,10.4-23.2,20.5-46.4,30.8-69.6l18.7-41.7,27.2-61.2c6.2-13.7,12.6-27.4,18.8-41.2,10.8-24.3,21.5-48.7,32.4-73,8.4-18.9,17-37.8,25.4-56.7,2.5-5.6,5.1-11.1,7.1-16.9,1-2.8,2.1-3.7,5.1-3.7,14.8.2,29.6.1,44.5.1Z"/><path class="cls-3" d="M2649.8,433H2528.9a16.6,16.6,0,0,0-6.7,1.1c-1.2.5-3.1.3-3.2,2.4s1.4,2.6,2.6,3.4c24.1,15.5,46.9,32.7,70.1,49.3,18.2,13,36.6,25.7,54.5,38.9,14,10.3,28.8,19.3,41.9,30.7,9.8,8.5,15.4,19.7,18,32.6,3.4,16.8-2.5,31.9-8,47.1a164.3,164.3,0,0,1-24.2,43.8,148.7,148.7,0,0,1-44.5,39,159.6,159.6,0,0,1-43.3,17.1c-6.7,1.5-13.8,1.4-20.6,1.4-78.5.3-157-.5-235.5.5-42.1.5-84.1.1-126.2.8-3.5,0-6.8-.8-10.2-1.1s-2.9-3.5-2.5-5.4a68.8,68.8,0,0,1,4.3-13.3c7-14.7,14.3-29.2,21.4-43.8,1.4-2.8,3.6-3.4,6.3-3.5,64.8-2.1,129.5-1,194.2-.7,20.1.1,40.2.1,60.3.8,3.5.1,6.2-1,7.2-3.9s-1.8-4.3-3.9-6c-15.2-11.6-31-22.3-46.7-33.1-29.5-20.3-59-40.7-88.8-60.5a175.4,175.4,0,0,1-29.3-23.8c-9.2-9.3-15.8-19.6-18-32.5-1-5.8.2-11.6,1.1-17.2a146.4,146.4,0,0,1,15.8-46.8,181.1,181.1,0,0,1,25.6-36.6c12.7-14.2,27.3-25.9,44.5-34.2,14-6.7,28.7-10.8,44.4-10.6s32.1.6,48,0c52.9-2,105.9.3,158.8-1.1,50.7-1.4,101.5-.2,152.2-.7,3.6-.1,7.2-1.2,11-.2s4.7,2.2,3.6,5.9c-2.7,9.7-7.1,18.6-11,27.7s-8.2,18.2-12,27.4c-1.6,3.9-4.2,5.2-8.3,5.2Z"/><path class="cls-3" d="M1436.8,740H1243.3a8.2,8.2,0,0,1-7.4-3.6c-25.2-33.1-50.7-66-75.9-99.1-2.5-3.4-3.9-3.4-7.1-.8L1021.6,737.9a7.9,7.9,0,0,1-5.3,2.2h-123l-2.1-.4,37.2-29.1,176.1-137.2c3-2.3,3.5-3.5,1-6.8q-73.6-97.2-147.2-194.8c-1.5-1.9-2.9-3.9-4.9-6.6H1147a8.2,8.2,0,0,1,7.4,3.7c25.1,33.2,50.4,66.2,75.4,99.5,3,3.9,4.5,3.9,8.3,1,43.1-33.5,86.4-66.8,129.5-100.3a17.1,17.1,0,0,1,11.3-3.9c39.8.2,79.6.1,119.7.1-.2,2.1-1.9,2.7-3.1,3.6q-104.6,81.9-209.2,163.8c-3.2,2.5-4.1,3.8-1.2,7.6q74.9,98.3,149.5,196.8Z"/><path class="cls-2" d="M226.2,760.5c.2-33,10.8-62.6,27.3-90.5,20.7-34.9,47.9-64.2,78.1-90.9,50.9-45,107.9-81.3,166.9-114.7,43.1-24.4,89.2-42.3,135-60.9q88.2-36,179.3-64.2c5.4-1.7,10.8-3.5,16.2-4.9s9,.5,8.6,7c-.6,10.3-4.6,19.6-8.7,28.9-1,2.1-3.3,2.2-5.1,2.9-31.2,11.6-62.6,22.8-93.3,35.8-50.9,21.7-99.6,47.6-146.7,76.7-42.1,26-82,54.9-118.3,88.7-32.5,30.3-61.7,63.4-83.8,102.3-15.4,27.3-26.7,56.1-29.3,87.6-3.4,39.7,8.3,74.8,32.6,106s55.7,53,90,71.4c6.7,3.5,13.6,6.8,20.5,10.1,2.1,1.1,4.2,2.1,3.2,5.2s-2.8,4.6-5.9,4.3c-4.9-.5-9.9-1.2-14.8-2-49-7.4-95.9-21.3-139.7-44.9-33.1-17.9-62.7-40.1-84.8-71.2C235.9,818.4,226.3,790.9,226.2,760.5Z"/><path class="cls-2" d="M386.9,784.6c.1-32.5,11.2-61.7,27.3-89.4s37.2-49.6,61.1-69.8c59.9-50.7,126.5-90.5,198.2-122a916.5,916.5,0,0,1,125.8-44.5c5.6-1.6,6.7-.4,6,5.4s-2.7,9.9-4.8,14.6c-1.2,2.5-3.4,3.5-5.7,4.6-21.9,9.9-43.9,19.5-65.4,30.3-45.7,23-89,49.8-128.6,82.3-34.9,28.7-65.9,61-90.4,99.2-19.1,29.9-30.5,62.3-29.5,98.3,1,30.9,12.7,57.4,32.8,80.5s45.8,39.3,73.3,52.5c4,1.9,5,4.1,3.6,8.1s-4.3,4.1-7.9,3.1c-26-6.9-52.2-13.5-77.3-23.4-29.6-11.8-57.3-26.6-80.3-49-16-15.7-29.5-33.4-35.6-55.5A86.1,86.1,0,0,1,386.9,784.6Z"/><path class="cls-3" d="M1858.4,845.1,1822,880c-14.9,14.5-29.9,29-44.7,43.6a8.4,8.4,0,0,1-6.2,2.4c-13.7-.1-27.3-.3-41,0-3.9.1-4.8-1.2-4.9-4.7-.4-22.3-1-44.6-1.5-66.9-.1-3.7-.4-7.4-.7-12.5-5.7,11.3-10.7,21.5-15.7,31.6q-12.3,24.8-24.7,49.5c-.7,1.5-1.2,3-3.4,3h-45.5l15-29.8c11.4-22.8,22.9-45.6,34.2-68.5,1.6-3.4,3.5-4.5,7.1-4.4h64c3.7-.1,4.7.8,4.9,4.6.9,24.8,2.1,49.5,3.2,75.5l6.4-6.3c24.2-23.2,48.6-46.5,72.7-69.9,2.9-2.7,5.6-4,9.6-3.9h66.5c.7,1.8-.6,3-1.2,4.2-15.7,31.6-31.5,63.2-47.1,94.8-1.4,2.7-2.8,3.9-6,3.8-14.3-.2-28.5-.1-42.8-.1-.3-2.2.9-3.5,1.6-5l37.5-74.6c.6-.7,1.7-1.4.8-2.2S1858.9,844.6,1858.4,845.1Z"/><path class="cls-3" d="M2867.6,894.3c11.3-22.7,22.5-44.7,33.4-66.9,1.5-3,3.2-4.3,6.8-4.3,13,.3,26,.2,39,.1,3.3,0,3.6.7,2.1,3.6q-24.3,48.2-48.4,96.5a4,4,0,0,1-4.2,2.7c-15-.1-30-.1-44.9,0-2.7,0-3.9-1.5-5.3-3.1l-54.3-63.3-5.1-5.8c-11.4,22.8-22.6,45.1-33.7,67.6-1.6,3.4-3.4,4.7-7.4,4.6-13.8-.3-27.6-.1-41.3-.1-.6-1.9.6-3.1,1.2-4.4q23.7-47.1,47.2-94.3c1.5-3,3.1-4.1,6.4-4q21.8.3,43.5,0a8.9,8.9,0,0,1,8,3.6c17.7,21.2,35.6,42.3,53.4,63.4Z"/><path class="cls-3" d="M1531.9,820c20.1.7,41.6,1,62.2,8a66.7,66.7,0,0,1,16.9,8.4c11.9,8,15.5,19,10.5,32.5s-13.2,22.2-23.9,29.9c-18.8,13.6-40.3,20.8-62.8,25-31.6,5.9-63.4,6.4-95.3,3-16.1-1.8-31.8-5.4-45.1-15.6-10.4-8-13.6-18-9.3-30.4,5.6-16,16.8-27.3,31.1-35.7,18.8-11.1,39.4-17.3,60.8-21C1494.7,821.1,1512.6,820.3,1531.9,820ZM1521,838.8c-19.3,0-38,2.7-55.6,11-11.3,5.3-20.6,12.8-26.7,23.8-7.6,13.7-4,24.4,10.3,30.7a41.1,41.1,0,0,0,7.4,2.7c27.3,5.7,54.1,4.3,80.2-5.9,12.9-5,23.7-12.8,30.7-25,2.8-4.8,4.7-9.9,4.1-15.5-1-10.3-8.6-14.5-17-17.5C1543.6,839.3,1532.3,838.7,1521,838.8Z"/><path class="cls-3" d="M2600.1,820.7c21.4,0,42.9.2,63.5,7.3a68.2,68.2,0,0,1,17.3,8.6c11.3,7.8,14.8,18.3,10.4,31.3-5.1,15-15.6,25.7-28.6,34-19.8,12.6-41.7,19.3-64.7,23-25.8,4.2-51.9,4.8-78,2.9-16.3-1.2-32.4-3.4-47.2-11-20.9-10.7-25.5-26.2-13.4-46.4,9.9-16.4,25.1-26.2,42.3-33.4,25.2-10.6,51.7-15.3,79-16.3C2587.1,820.5,2593.6,820.7,2600.1,820.7Zm-9.1,18.1c-16.1-.1-31.8,1.8-47,7.2s-28.8,13.9-36.5,29c-6.5,12.8-3.1,22.4,9.7,28.7a30.1,30.1,0,0,0,6,2.4c31.8,7.6,62.6,5.5,92-9.4a50.7,50.7,0,0,0,22.2-21.5c7.6-14,3.5-25.3-11.2-31.2C2614.9,839.5,2603,838.8,2591,838.8Z"/><path class="cls-3" d="M1026.7,823.3c.2,2.3-1.1,3.7-1.9,5.3l-29.5,58.8c-5.6,11.1-2.6,18,9.6,20.4a126.7,126.7,0,0,0,56.8-1.5c11.8-3.1,20.2-10.3,25.5-21.2,9.5-19.4,19.3-38.6,28.9-57.9,1.4-2.9,2.9-4.1,6.3-4.1,14.5.3,29,.2,43.5.1,2.9,0,4,.2,2.3,3.5-10.4,20.2-20.5,40.5-30.7,60.8-9.2,17.9-25,26.9-43.4,32.4s-39.1,7.7-59.1,8.4-41.9.4-62.6-3.4c-8.2-1.4-16.2-3.6-23.3-8.1S938,904.5,940.7,895a55.6,55.6,0,0,1,3.5-8.8c9.8-19.8,19.8-39.5,29.7-59.2.8-1.7,1.2-3.8,3.9-3.8Z"/><path class="cls-3" d="M890.8,925.9c-17.3,0-34.5-.1-51.6.1-2.9.1-3.4-1.4-3.8-3.4-1.2-4.8-2.4-9.6-3.4-14.5-.4-2.4-1.5-3.2-4-3.2-27.5.1-54.9,0-82.4,0a7.7,7.7,0,0,0-5,1.8c-7.3,5.8-14.7,11.4-22,17.1a9,9,0,0,1-5.9,2.2H663.5c.2-2,2-2.6,3.1-3.4l130.5-97.2a9.4,9.4,0,0,1,5.9-2.1h50.4c2.9,0,3.9,1,4.8,3.6q16.2,48.8,32.6,97.5A7.9,7.9,0,0,1,890.8,925.9Zm-74.9-78.5L766,886.8h59.7C822.4,873.8,819.3,861,815.9,847.4Z"/><path class="cls-3" d="M2127.6,925.9h-52.3c-2.4,0-2.6-1.6-3-3.1-1.2-4.6-2.3-9.3-3.2-14-.6-2.8-1.6-4.1-4.9-4.1-27.1.2-54.3.1-81.4.1a8.5,8.5,0,0,0-5.5,1.8c-7,5.6-14.1,11.1-21.2,16.6-1.7,1.2-3.2,2.7-5.7,2.7h-51.2l7.6-6,126.9-94.4a9.8,9.8,0,0,1,6.3-2.3h50c2.4,0,4,.2,4.9,2.9q16.3,49.2,32.8,98.5C2127.8,924.8,2127.6,925.2,2127.6,925.9Zm-124.8-39.1h59.7c-3.3-13.1-6.5-26-9.8-39.3Z"/><path class="cls-3" d="M1221.1,925.9c14.3-28.3,28.1-55.8,42.1-83.8H1191c3.3-6.5,6.1-12.2,9-17.8.7-1.4,2-1,3.1-1h191.4l1.2.4c-2.9,5.8-5.7,11.6-8.7,17.2-1,2-3,1-4.5,1-21.3.1-42.7.1-64,0-3.1-.1-4.6.8-6,3.6-12.4,25.3-25,50.5-37.4,75.8-1.8,3.7-3.9,4.8-7.9,4.7C1252.2,925.8,1237.2,925.9,1221.1,925.9Z"/><path class="cls-3" d="M2230.6,842h-72c3-6.2,5.7-11.9,8.7-17.6,1-2,3.3-1.1,5-1.1h191c-3,6.2-5.7,11.8-8.5,17.4-1.1,2.1-3.3,1.3-5,1.3-21.1,0-42.3.1-63.4-.1-3.5,0-5.2,1.1-6.7,4.3-12.5,25.4-25.2,50.7-37.7,76.1-1.4,2.8-2.9,3.8-6,3.8-15.5-.2-31-.1-47.3-.1Z"/><path class="cls-3" d="M2442.3,823.3l-8.6,17.3c-13.5,27-27.2,54.1-40.6,81.2-1.6,3.2-3.3,4.3-6.8,4.2q-20.7-.3-41.4,0c-3.6,0-4.8-.4-2.9-4.2q24.1-47.7,47.9-95.4c.9-1.7,1.5-3.2,3.9-3.2Z"/><path class="cls-1" d="M1858.4,845.1c.5-.5,1.1-1.7,1.7-1s-.2,1.5-.8,2.2Z"/><path class="cls-1" d="M1521,838.8c11.3-.1,22.6.5,33.4,4.3,8.4,3,16,7.2,17,17.5.6,5.6-1.3,10.7-4.1,15.5-7,12.2-17.8,20-30.7,25-26.1,10.2-52.9,11.6-80.2,5.9a41.1,41.1,0,0,1-7.4-2.7c-14.3-6.3-17.9-17-10.3-30.7,6.1-11,15.4-18.5,26.7-23.8C1483,841.5,1501.7,838.8,1521,838.8Z"/><path class="cls-1" d="M2591,838.8c12,0,23.9.7,35.2,5.2,14.7,5.9,18.8,17.2,11.2,31.2a50.7,50.7,0,0,1-22.2,21.5c-29.4,14.9-60.2,17-92,9.4a30.1,30.1,0,0,1-6-2.4c-12.8-6.3-16.2-15.9-9.7-28.7,7.7-15.1,21.1-23.5,36.5-29S2574.9,838.7,2591,838.8Z"/><path class="cls-1" d="M815.9,847.4c3.4,13.6,6.5,26.4,9.8,39.4H766Z"/><path class="cls-1" d="M2002.8,886.8l49.9-39.3c3.3,13.3,6.5,26.2,9.8,39.3Z"/></svg>