<?xml version="1.0" encoding="utf-8"?>
<!-- Generator: Adobe Illustrator 19.2.1, SVG Export Plug-In . SVG Version: 6.00 Build 0)  -->
<!DOCTYPE svg PUBLIC "-//W3C//DTD SVG 1.1//EN" "http://www.w3.org/Graphics/SVG/1.1/DTD/svg11.dtd">
<svg version="1.1" id="Layer_1" xmlns="http://www.w3.org/2000/svg" xmlns:xlink="http://www.w3.org/1999/xlink" x="0px" y="0px"
	 viewBox="0 0 40.9 40.9" enable-background="new 0 0 40.9 40.9" xml:space="preserve">
<path fill="#626262" d="M41.1,7.6c-1.5,0.7-3.2,1.1-4.9,1.3C38,7.9,39.4,6.2,40,4.2c-1.6,1-3.5,1.7-5.4,2.1
	c-1.5-1.7-3.8-2.7-6.2-2.7c-4.7,0-8.5,3.8-8.5,8.5c0,0.7,0.1,1.3,0.2,1.9c-7.1-0.4-13.3-3.7-17.5-8.9C1.9,6.4,1.5,7.9,1.5,9.5
	c0,2.9,1.5,5.5,3.8,7.1c-1.4,0-2.7-0.4-3.8-1.1c0,0,0,0.1,0,0.1c0,4.1,2.9,7.5,6.8,8.3c-0.7,0.2-1.5,0.3-2.2,0.3
	c-0.5,0-1.1-0.1-1.6-0.2c1.1,3.4,4.2,5.8,7.9,5.9c-2.9,2.3-6.6,3.6-10.5,3.6c-0.7,0-1.4,0-2-0.1c3.8,2.4,8.2,3.8,13,3.8
	c15.6,0,24.2-12.9,24.2-24.2c0-0.4,0-0.7,0-1.1C38.6,10.8,40,9.3,41.1,7.6z"/>
</svg>
